<?xml version="1.0" encoding="utf-8"?>
<!-- Generator: Adobe Illustrator 16.0.4, SVG Export Plug-In . SVG Version: 6.00 Build 0)  -->
<!DOCTYPE svg PUBLIC "-//W3C//DTD SVG 1.1//EN" "http://www.w3.org/Graphics/SVG/1.1/DTD/svg11.dtd">
<svg version="1.1" id="Layer_1" xmlns="http://www.w3.org/2000/svg" xmlns:xlink="http://www.w3.org/1999/xlink" x="0px" y="0px"
	 width="151.164px" height="152.551px" viewBox="0 0 152 153" enable-background="new 0 0 151.164 152.551"
	 xml:space="preserve">
<g opacity="1.0">
	<path fill="#e7238b" d="M8.2,0.809h3.81l7.877,20.451h-3.838l-1.919-5.414H5.966L4.047,21.26H0.352L8.2,0.809z M6.939,13.125h6.244
		l-3.064-8.793h-0.086L6.939,13.125z"/>
	<path fill="#e7238b" d="M23.438,14.443c0,0.783,0.134,1.451,0.401,2.005c0.267,0.554,0.639,1.007,1.117,1.36
		c0.477,0.354,1.026,0.611,1.647,0.773c0.621,0.163,1.293,0.244,2.02,0.244c0.783,0,1.451-0.09,2.005-0.272
		c0.554-0.182,1.002-0.416,1.346-0.702c0.344-0.286,0.592-0.616,0.745-0.988c0.153-0.373,0.229-0.75,0.229-1.132
		c0-0.783-0.177-1.36-0.53-1.732c-0.354-0.373-0.74-0.635-1.16-0.788c-0.726-0.267-1.571-0.52-2.535-0.759
		c-0.964-0.239-2.153-0.549-3.566-0.931c-0.878-0.229-1.609-0.53-2.191-0.902c-0.583-0.373-1.045-0.788-1.389-1.246
		c-0.343-0.458-0.587-0.945-0.73-1.461c-0.144-0.516-0.215-1.041-0.215-1.575c0-1.031,0.215-1.924,0.645-2.678
		c0.429-0.754,0.998-1.379,1.704-1.876s1.508-0.864,2.406-1.103c0.897-0.238,1.805-0.358,2.721-0.358
		c1.069,0,2.077,0.139,3.022,0.416c0.945,0.277,1.776,0.692,2.492,1.246c0.716,0.554,1.284,1.237,1.705,2.048
		c0.419,0.812,0.63,1.752,0.63,2.821h-3.58c-0.096-1.318-0.544-2.249-1.347-2.793c-0.802-0.544-1.824-0.816-3.064-0.816
		c-0.42,0-0.85,0.043-1.289,0.129c-0.439,0.086-0.84,0.229-1.203,0.43c-0.363,0.201-0.664,0.473-0.902,0.816
		c-0.238,0.343-0.358,0.773-0.358,1.289c0,0.726,0.224,1.294,0.673,1.704c0.448,0.411,1.036,0.721,1.761,0.931
		c0.076,0.019,0.377,0.1,0.902,0.243c0.525,0.144,1.112,0.301,1.762,0.473c0.649,0.172,1.284,0.339,1.905,0.501
		c0.62,0.162,1.064,0.282,1.332,0.358c0.668,0.21,1.25,0.497,1.748,0.859c0.496,0.363,0.912,0.778,1.246,1.246
		c0.333,0.468,0.582,0.969,0.745,1.503c0.162,0.535,0.243,1.07,0.243,1.604c0,1.146-0.234,2.125-0.702,2.936
		c-0.468,0.812-1.084,1.475-1.847,1.991c-0.764,0.516-1.633,0.893-2.607,1.131c-0.974,0.239-1.967,0.358-2.979,0.358
		c-1.165,0-2.263-0.143-3.294-0.43c-1.031-0.286-1.929-0.725-2.692-1.317c-0.764-0.592-1.375-1.351-1.833-2.277
		c-0.458-0.926-0.697-2.019-0.716-3.279H23.438z"/>
	<path fill="#e7238b" d="M38.819,0.809H42.4v8.135h9.309V0.809h3.58V21.26h-3.58v-9.223H42.4v9.223h-3.581V0.809z"/>
	<path fill="#e7238b" d="M56.892,0.809h16.556v3.094h-6.502V21.26h-3.58V3.902h-6.474V0.809z"/>
	<path fill="#e7238b" d="M77.916,0.809h3.811l7.877,20.451h-3.838l-1.918-5.414h-8.165l-1.919,5.414h-3.695L77.916,0.809z
		 M76.654,13.125H82.9l-3.064-8.793H79.75L76.654,13.125z"/>
	<path fill="#e7238b" d="M90.662,0.809h3.781l9.338,15.066h0.057V0.809h3.41V21.26h-3.781L94.158,6.222H94.07V21.26h-3.408V0.809z"
		/>
	<path fill="#e7238b" d="M128.583,21.26h-2.291l-0.545-2.406c-0.955,1.088-1.908,1.843-2.863,2.263
		c-0.954,0.419-2.053,0.63-3.295,0.63c-1.526,0-2.896-0.282-4.108-0.845c-1.211-0.563-2.237-1.332-3.08-2.306
		c-0.84-0.974-1.481-2.11-1.935-3.409c-0.446-1.298-0.672-2.683-0.672-4.153c0-1.451,0.226-2.826,0.672-4.125
		c0.449-1.298,1.095-2.435,1.935-3.409c0.843-0.974,1.867-1.747,3.08-2.32c1.213-0.573,2.582-0.859,4.108-0.859
		c1.106,0,2.164,0.148,3.166,0.444c1.002,0.296,1.896,0.735,2.679,1.318c0.782,0.583,1.435,1.313,1.946,2.191
		c0.517,0.878,0.841,1.891,0.976,3.036h-3.494c-0.096-0.668-0.301-1.255-0.614-1.761c-0.313-0.506-0.711-0.931-1.188-1.275
		c-0.479-0.344-1.014-0.602-1.604-0.773c-0.594-0.172-1.213-0.258-1.861-0.258c-1.088,0-2.027,0.22-2.82,0.659
		c-0.791,0.439-1.438,1.026-1.936,1.761c-0.496,0.735-0.861,1.571-1.104,2.506c-0.238,0.936-0.357,1.891-0.357,2.864
		c0,0.974,0.119,1.929,0.357,2.864c0.238,0.936,0.605,1.771,1.104,2.506c0.498,0.735,1.145,1.322,1.936,1.762
		c0.793,0.44,1.732,0.659,2.82,0.659c0.916,0.019,1.729-0.1,2.436-0.358c0.707-0.258,1.305-0.63,1.791-1.117
		c0.486-0.487,0.854-1.083,1.104-1.79c0.248-0.707,0.383-1.49,0.4-2.349h-5.441v-2.72h8.707v10.77H128.583z"/>
	<path fill="#e7238b" d="M137.207,0.809h3.811l7.877,20.451h-3.838l-1.92-5.414h-8.164l-1.918,5.414h-3.695L137.207,0.809z
		 M135.945,13.125h6.244l-3.064-8.793h-0.086L135.945,13.125z"/>
	<path fill="#e7238b" d="M15.026,50.31L0.579,26.914h7.816l10.188,17.25l10.027-17.25h7.547L21.765,50.31v15.094h-6.738
		L15.026,50.31L15.026,50.31z"/>
	<path fill="#e7238b" d="M54.917,25.997c2.875,0,5.453,0.539,7.736,1.617c2.282,1.079,4.213,2.534,5.795,4.367
		c1.581,1.833,2.794,3.972,3.639,6.415c0.844,2.444,1.267,5.032,1.267,7.763c0,2.768-0.423,5.373-1.267,7.817
		c-0.845,2.444-2.058,4.582-3.639,6.415c-1.582,1.833-3.513,3.28-5.795,4.339c-2.283,1.06-4.861,1.59-7.736,1.59
		s-5.454-0.531-7.736-1.59c-2.283-1.06-4.214-2.507-5.795-4.339c-1.582-1.833-2.795-3.971-3.639-6.415
		c-0.845-2.444-1.267-5.049-1.267-7.817c0-2.73,0.422-5.318,1.267-7.763c0.844-2.443,2.057-4.582,3.639-6.415
		c1.581-1.833,3.512-3.288,5.795-4.367C49.463,26.536,52.042,25.997,54.917,25.997z M54.917,31.496c-2.048,0-3.819,0.414-5.31,1.24
		c-1.492,0.827-2.705,1.932-3.639,3.315c-0.935,1.384-1.626,2.956-2.075,4.717c-0.45,1.761-0.674,3.558-0.674,5.391
		s0.224,3.63,0.674,5.391c0.449,1.761,1.14,3.334,2.075,4.717c0.934,1.384,2.147,2.489,3.639,3.315
		c1.491,0.827,3.262,1.24,5.31,1.24s3.818-0.413,5.31-1.24c1.491-0.826,2.704-1.931,3.639-3.315
		c0.934-1.383,1.625-2.956,2.076-4.717c0.449-1.76,0.674-3.558,0.674-5.391s-0.225-3.629-0.674-5.391
		c-0.45-1.761-1.142-3.333-2.076-4.717c-0.935-1.383-2.148-2.488-3.639-3.315C58.736,31.909,56.966,31.496,54.917,31.496z"/>
	<path fill="#e7238b" d="M111.682,65.404h-4.312l-1.024-4.528c-1.798,2.048-3.595,3.469-5.392,4.259s-3.863,1.186-6.199,1.186
		c-2.875,0-5.452-0.531-7.735-1.59c-2.281-1.06-4.213-2.507-5.795-4.339c-1.582-1.833-2.795-3.971-3.64-6.415
		c-0.844-2.444-1.267-5.049-1.267-7.817c0-2.73,0.423-5.318,1.267-7.763c0.845-2.443,2.058-4.582,3.64-6.415
		s3.514-3.288,5.795-4.367c2.283-1.078,4.86-1.617,7.735-1.617c2.084,0,4.07,0.279,5.957,0.836c1.888,0.558,3.565,1.384,5.041,2.479
		c1.474,1.097,2.695,2.471,3.664,4.124c0.972,1.653,1.582,3.558,1.834,5.714h-6.576c-0.182-1.258-0.565-2.363-1.159-3.315
		c-0.593-0.952-1.341-1.752-2.236-2.399c-0.897-0.647-1.905-1.132-3.021-1.456c-1.112-0.323-2.282-0.485-3.504-0.485
		c-2.049,0-3.817,0.414-5.312,1.24c-1.489,0.827-2.702,1.932-3.639,3.315c-0.937,1.384-1.625,2.956-2.074,4.717
		c-0.451,1.761-0.674,3.558-0.674,5.391s0.223,3.63,0.674,5.391c0.449,1.761,1.142,3.334,2.074,4.717
		c0.937,1.384,2.146,2.489,3.639,3.315c1.492,0.827,3.263,1.24,5.312,1.24c1.726,0.036,3.252-0.189,4.582-0.674
		s2.453-1.186,3.369-2.103s1.606-2.039,2.076-3.369c0.467-1.329,0.719-2.803,0.754-4.42H95.292v-5.122h16.39V65.404z"/>
	<path fill="#e7238b" d="M127.91,26.914h7.17l14.822,38.49h-7.225l-3.611-10.188h-15.361l-3.611,10.188h-6.955L127.91,26.914z
		 M125.537,50.094h11.752l-5.77-16.55h-0.162L125.537,50.094z"/>
	<path fill="#e7238b" d="M0.959,80.914H17.13c3.73,0,6.528,0.811,8.394,2.434c1.865,1.621,2.798,3.879,2.798,6.772
		c0,1.622-0.237,2.966-0.711,4.03c-0.474,1.063-1.027,1.926-1.66,2.576c-0.633,0.65-1.257,1.121-1.873,1.405
		c-0.617,0.286-1.067,0.479-1.352,0.572V98.8c0.505,0.063,1.051,0.226,1.636,0.479c0.585,0.255,1.13,0.66,1.636,1.217
		c0.505,0.557,0.925,1.279,1.257,2.17s0.498,2.004,0.498,3.34c0,2.003,0.149,3.824,0.45,5.462c0.3,1.638,0.767,2.808,1.399,3.507
		h-6.355c-0.443-0.729-0.704-1.543-0.782-2.434c-0.08-0.891-0.119-1.749-0.119-2.576c0-1.558-0.095-2.9-0.285-4.031
		c-0.189-1.127-0.538-2.063-1.043-2.812c-0.506-0.746-1.193-1.295-2.063-1.646c-0.87-0.352-1.984-0.523-3.343-0.523H6.887v14.023
		H0.959V80.914z M6.887,96.417h9.722c1.897,0,3.335-0.453,4.315-1.358c0.979-0.906,1.47-2.267,1.47-4.08
		c0-1.08-0.159-1.963-0.474-2.646c-0.316-0.685-0.751-1.216-1.304-1.599c-0.554-0.383-1.186-0.637-1.897-0.766
		c-0.711-0.126-1.446-0.189-2.205-0.189H6.887V96.417z"/>
	<path fill="#e7238b" d="M33.112,80.914h24.375v5.152H39.04v8.92h17.072v4.865H39.04v9.971h18.779v5.152H33.112V80.914z"/>
	<path fill="#e7238b" d="M61.518,80.914h6.26l15.46,25.092h0.096V80.914h5.645v34.061h-6.262L67.304,89.93h-0.143v25.045h-5.643
		V80.914z"/>
	<path fill="#e7238b" d="M94.762,80.914h24.375v5.152h-18.447v8.92h17.072v4.865h-17.072v9.971h18.778v5.152H94.762V80.914z"/>
	<path fill="#e7238b" d="M123.404,80.914h24.375v5.152h-18.445v8.92h17.07v4.865h-17.07v9.971h18.777v5.152h-24.707V80.914z"/>
	<path fill="#e7238b" d="M23.984,128.938c-0.246-0.955-0.582-1.832-1.011-2.635c-0.429-0.801-0.98-1.492-1.653-2.078
		c-0.674-0.584-1.463-1.039-2.366-1.363c-0.903-0.321-1.952-0.482-3.146-0.482c-1.746,0-3.254,0.354-4.524,1.062
		c-1.271,0.709-2.304,1.654-3.1,2.843c-0.796,1.186-1.386,2.532-1.769,4.042s-0.574,3.05-0.574,4.619
		c0,1.57,0.191,3.111,0.574,4.619c0.383,1.512,0.972,2.856,1.769,4.043c0.796,1.188,1.829,2.135,3.1,2.843
		c1.271,0.709,2.779,1.062,4.524,1.062c1.286,0,2.418-0.224,3.399-0.67c0.979-0.445,1.821-1.062,2.526-1.849
		c0.704-0.785,1.255-1.701,1.654-2.749c0.397-1.047,0.658-2.172,0.781-3.372h5.604c-0.123,1.971-0.544,3.772-1.263,5.405
		c-0.72,1.633-1.692,3.041-2.917,4.228c-1.225,1.187-2.664,2.103-4.317,2.749c-1.654,0.646-3.476,0.971-5.466,0.971
		c-2.45,0-4.647-0.455-6.591-1.363c-1.945-0.905-3.59-2.146-4.938-3.719c-1.348-1.569-2.381-3.403-3.1-5.498
		c-0.72-2.095-1.08-4.328-1.08-6.699c0-2.34,0.36-4.559,1.08-6.65c0.719-2.097,1.752-3.928,3.1-5.498
		c1.347-1.568,2.993-2.816,4.938-3.742c1.944-0.925,4.141-1.387,6.591-1.387c1.837,0,3.567,0.254,5.19,0.764
		s3.055,1.246,4.294,2.219c1.24,0.971,2.243,2.146,3.009,3.535c0.765,1.385,1.24,2.973,1.424,4.758h-5.742V128.938z"/>
	<path fill="#e7238b" d="M33.123,118.449h23.608v4.99H38.864v8.64h16.535v4.713H38.864v9.655h18.188v4.99h-23.93L33.123,118.449
		L33.123,118.449z"/>
	<path fill="#e7238b" d="M60.176,118.449h15.662c3.613,0,6.324,0.785,8.128,2.355c1.808,1.569,2.711,3.76,2.711,6.562
		c0,1.571-0.229,2.873-0.688,3.903s-0.993,1.862-1.604,2.496c-0.612,0.631-1.219,1.086-1.813,1.359
		c-0.596,0.275-1.032,0.463-1.309,0.557v0.094c0.487,0.062,1.018,0.216,1.584,0.461c0.565,0.248,1.096,0.641,1.586,1.179
		c0.487,0.54,0.896,1.239,1.217,2.103c0.319,0.863,0.479,1.94,0.479,3.234c0,1.939,0.146,3.704,0.438,5.29
		c0.291,1.587,0.742,2.719,1.354,3.396h-6.152c-0.432-0.707-0.684-1.492-0.76-2.354c-0.074-0.859-0.113-1.691-0.113-2.495
		c0-1.509-0.094-2.812-0.273-3.901c-0.186-1.095-0.521-2.002-1.012-2.729c-0.49-0.725-1.156-1.254-1.998-1.595
		c-0.842-0.339-1.921-0.509-3.238-0.509H65.92v13.582h-5.741L60.176,118.449L60.176,118.449z M65.917,133.464h9.416
		c1.836,0,3.229-0.438,4.179-1.315c0.948-0.879,1.424-2.192,1.424-3.948c0-1.05-0.151-1.901-0.459-2.564
		c-0.308-0.659-0.728-1.178-1.263-1.548c-0.536-0.369-1.149-0.613-1.838-0.736s-1.4-0.188-2.135-0.188h-9.324V133.464z"/>
	<path fill="#e7238b" d="M90.626,118.449h15.662c3.612,0,6.321,0.785,8.129,2.355c1.808,1.569,2.711,3.76,2.711,6.562
		c0,1.571-0.229,2.873-0.688,3.903s-0.994,1.862-1.604,2.496c-0.612,0.631-1.219,1.086-1.813,1.359
		c-0.599,0.275-1.033,0.463-1.31,0.557v0.094c0.488,0.062,1.019,0.216,1.584,0.461c0.563,0.248,1.097,0.641,1.584,1.179
		c0.49,0.54,0.896,1.239,1.22,2.103c0.319,0.863,0.479,1.94,0.479,3.234c0,1.939,0.146,3.704,0.438,5.29
		c0.291,1.587,0.741,2.719,1.354,3.396h-6.154c-0.43-0.707-0.682-1.492-0.758-2.354c-0.076-0.859-0.115-1.691-0.115-2.495
		c0-1.509-0.092-2.812-0.273-3.901c-0.186-1.095-0.521-2.002-1.01-2.729c-0.49-0.725-1.156-1.254-1.998-1.595
		c-0.844-0.339-1.922-0.509-3.238-0.509h-8.449v13.582h-5.742V118.45L90.626,118.449L90.626,118.449z M96.369,133.464h9.416
		c1.838,0,3.229-0.438,4.18-1.315c0.949-0.879,1.424-2.192,1.424-3.948c0-1.05-0.152-1.901-0.459-2.564
		c-0.307-0.659-0.729-1.178-1.264-1.548c-0.535-0.369-1.146-0.613-1.838-0.736c-0.688-0.123-1.398-0.188-2.137-0.188h-9.322V133.464
		z"/>
	<path fill="#e7238b" d="M135.042,117.664c2.449,0,4.646,0.462,6.592,1.387c1.943,0.924,3.591,2.172,4.938,3.742
		c1.347,1.57,2.381,3.402,3.1,5.498c0.721,2.095,1.08,4.312,1.08,6.652c0,2.371-0.359,4.604-1.08,6.699
		c-0.719,2.094-1.752,3.928-3.1,5.498c-1.348,1.568-2.994,2.812-4.938,3.719c-1.944,0.908-4.143,1.363-6.592,1.363
		c-2.448,0-4.646-0.455-6.592-1.363c-1.945-0.907-3.591-2.147-4.938-3.719c-1.348-1.57-2.381-3.404-3.1-5.498
		c-0.723-2.097-1.08-4.328-1.08-6.699c0-2.34,0.357-4.561,1.08-6.652c0.719-2.096,1.752-3.928,3.1-5.498s2.992-2.818,4.938-3.742
		C130.395,118.125,132.591,117.664,135.042,117.664z M135.042,122.376c-1.746,0-3.254,0.354-4.522,1.062
		c-1.271,0.709-2.306,1.656-3.103,2.845c-0.797,1.186-1.385,2.53-1.769,4.042c-0.383,1.51-0.573,3.05-0.573,4.617
		c0,1.572,0.19,3.111,0.573,4.621c0.384,1.512,0.972,2.856,1.769,4.043c0.797,1.188,1.83,2.135,3.103,2.84
		c1.271,0.711,2.776,1.063,4.522,1.063s3.254-0.354,4.522-1.063c1.271-0.705,2.306-1.652,3.103-2.84
		c0.795-1.187,1.386-2.531,1.769-4.043c0.383-1.51,0.574-3.049,0.574-4.621c0-1.567-0.191-3.107-0.574-4.617
		c-0.383-1.512-0.974-2.856-1.769-4.043c-0.797-1.188-1.83-2.135-3.103-2.844C138.294,122.73,136.789,122.376,135.042,122.376z"/>
	<polygon fill="#e7238b" enable-background="new    " points="76.393,66.118 78.102,70.561 82.852,70.812 79.158,73.81 
		80.384,78.407 76.393,75.817 72.4,78.407 73.628,73.81 69.933,70.812 74.684,70.561 	"/>
</g>
</svg>
